<?xml version="1.0" standalone="no"?>
<!DOCTYPE svg PUBLIC "-//W3C//DTD SVG 20010904//EN"
 "http://www.w3.org/TR/2001/REC-SVG-20010904/DTD/svg10.dtd">
<svg version="1.0" xmlns="http://www.w3.org/2000/svg"
 width="400.000000pt" height="400.000000pt" viewBox="0 0 400.000000 400.000000"
 preserveAspectRatio="xMidYMid meet">
<metadata>
Created by potrace 1.14, written by Peter Selinger 2001-2017
</metadata>
<g transform="translate(0.000000,400.000000) scale(0.100000,-0.100000)"
fill="#000000" stroke="none">
<path d="M405 3828 c-110 -22 -202 -41 -204 -43 -3 -4 11 -173 53 -625 l11
-124 37 -9 c45 -11 35 53 88 -567 10 -129 21 -264 22 -299 l3 -64 -115 -52
c-111 -49 -115 -52 -113 -81 7 -98 34 -373 38 -391 3 -13 17 -26 38 -32 29
-10 39 -8 80 14 45 26 46 26 97 9 53 -17 70 -39 70 -88 0 -19 12 -26 73 -48
l73 -26 97 55 97 55 53 -18 52 -19 3 -88 3 -88 43 -19 43 -18 7 -173 c5 -115
11 -176 19 -181 31 -20 34 -8 29 107 -5 130 0 139 67 115 201 -71 202 -72 189
-87 -7 -8 -11 -33 -9 -55 3 -40 2 -41 -26 -35 l-28 6 3 -112 c2 -62 7 -115 11
-120 4 -4 34 -18 67 -30 l59 -23 3 -61 3 -62 44 -17 c42 -16 44 -18 47 -61 l3
-45 83 -34 83 -34 37 30 c20 16 42 30 50 30 7 0 33 19 57 41 l45 42 40 -16 41
-16 -3 122 -3 122 -42 15 c-36 12 -42 18 -37 35 8 25 64 74 84 74 8 0 62 -17
119 -37 l103 -38 -1 -139 c-2 -111 -5 -143 -18 -157 -11 -13 -20 -15 -34 -8
-33 18 -51 12 -47 -16 2 -21 13 -30 51 -45 l49 -19 30 25 c16 14 37 25 46 25
9 0 100 84 204 187 l188 187 0 48 c0 49 7 56 44 42 12 -5 16 -20 16 -58 l0
-52 56 -18 56 -18 -6 -51 -7 -52 111 -38 111 -39 37 42 37 41 140 -49 140 -50
-3 -54 -3 -54 57 -18 c47 -15 59 -16 70 -4 7 7 78 97 156 200 l144 188 28 227
c15 126 30 240 33 254 4 20 0 28 -13 32 -11 3 -89 24 -174 48 -85 23 -158 45
-163 49 -4 3 1 94 12 201 11 107 34 331 51 499 41 409 33 375 111 435 l65 50
48 443 c27 243 47 444 45 446 -2 2 -67 11 -144 20 -77 9 -161 19 -186 22 -41
5 -63 -2 -204 -63 -173 -74 -175 -76 -175 -162 0 -74 -10 -110 -32 -117 -11
-3 -21 -4 -23 -2 -1 1 3 82 11 178 7 96 13 184 14 196 0 22 -7 23 -297 51 -44
5 -75 -3 -232 -57 l-181 -63 0 -33 c0 -39 -6 -40 -106 -24 -59 10 -66 8 -208
-40 -81 -28 -149 -50 -152 -50 -2 0 -4 6 -4 14 0 9 -17 16 -45 20 l-45 7 0 54
c0 62 8 57 -114 74 -61 9 -78 7 -154 -15 -47 -13 -88 -22 -90 -19 -3 3 -8 46
-10 95 l-4 89 -42 3 -41 3 -3 57 -3 57 -67 6 c-37 4 -94 10 -127 15 -48 6 -82
3 -169 -16 -60 -13 -115 -24 -121 -24 -7 0 -15 17 -19 38 l-6 39 -94 11 c-133
17 -156 15 -381 -30z m865 -1773 c52 -14 111 -30 131 -35 l37 -10 7 -216 c4
-118 5 -217 2 -220 -3 -3 -64 13 -135 36 l-130 41 -6 37 c-10 71 -18 392 -10
392 5 0 52 -11 104 -25z m788 -216 c81 -22 150 -44 155 -48 4 -4 4 -109 0
-233 l-8 -226 -110 34 c-60 19 -134 41 -162 50 l-53 15 0 225 c0 193 2 224 15
224 8 0 81 -18 163 -41z"/>
<path d="M1278 2003 c-2 -5 -2 -65 0 -135 l4 -128 70 -21 c38 -11 72 -18 75
-15 3 2 2 63 -2 135 l-8 131 -64 20 c-75 23 -71 22 -75 13z"/>
<path d="M2000 1665 c0 -152 -8 -139 98 -170 55 -16 65 -17 73 -4 5 8 9 71 9
141 l0 127 -69 21 c-118 35 -111 42 -111 -115z"/>
<path d="M1152 812 c4 -36 38 -44 38 -9 0 16 -7 26 -21 30 -17 5 -20 1 -17
-21z"/>
</g>
</svg>
